<?xml version="1.0" encoding="utf-8"?>
<!-- Generator: Adobe Illustrator 27.0.0, SVG Export Plug-In . SVG Version: 6.00 Build 0)  -->
<svg version="1.1"
	 id="svg2" xmlns:svg="http://www.w3.org/2000/svg" xmlns:inkscape="http://www.inkscape.org/namespaces/inkscape" xmlns:sodipodi="http://sodipodi.sourceforge.net/DTD/sodipodi-0.dtd"
	 xmlns="http://www.w3.org/2000/svg" xmlns:xlink="http://www.w3.org/1999/xlink" x="0px" y="0px" viewBox="0 0 2000 2000"
	 style="enable-background:new 0 0 2000 2000;" xml:space="preserve">
<sodipodi:namedview  bordercolor="#000000" borderopacity="0.25" id="namedview4" inkscape:current-layer="g8" inkscape:cx="312.61243" inkscape:cy="450.80229" inkscape:deskcolor="#d1d1d1" inkscape:pagecheckerboard="0" inkscape:pageopacity="0.0" inkscape:showpageshadow="2" inkscape:window-height="1001" inkscape:window-maximized="1" inkscape:window-width="1920" inkscape:window-x="-9" inkscape:window-y="-9" inkscape:zoom="0.59338652" pagecolor="#ffffff" showgrid="false">
	</sodipodi:namedview>
<g id="g8" inkscape:groupmode="layer" inkscape:label="Image">
	<path id="path909" d="M868.8,1777.3c-5.8-2.2-6-2.9-8.3-24.4c-2.8-26.2-7.4-40.3-16.2-49.1c-7.8-7.8-4.4-7-42.4-9.7l-5.9-0.4
		l-5.6-23.3c-6.9-28.4-10.1-48.3-8.2-50.2c0.8-0.8,7.3-2.4,14.4-3.5c10.1-1.6,22.7-1.5,57,0.3c93.4,5,148.4,1.1,226.3-15.9
		c49.7-10.8,87.8-24.6,139-50.1c41.5-20.6,57.4-31.1,87-57.4c12.6-11.2,23.5-19.1,32.5-23.7c46.5-23.7,82.8-71.2,110.4-144.2
		c6.2-16.3,6.5-18.3,6.4-36.3c-0.2-22.3-2.7-31.3-16.8-59.3c-11-21.9-14-33.7-11.2-44c1.1-3.9,2.8-8.3,3.9-9.6
		c3.6-4.4,15.6-8.7,24.2-8.8c23.8-0.1,41,15.2,45.1,40.2c1.4,8.7,9.1,17.1,23.6,25.7c18.6,11,22.1,15,22.1,24.9
		c0,7.8-0.5,8.7-9.6,17c-27.9,25.4-26.7,23.8-26.7,33.3c0,8.1,0.4,8.9,5.7,11.4c7.7,3.7,19.5,6.2,28.9,6.3
		c11.6,0.1,20.4,3.1,23.7,8.1c4,6.1,3.7,18.8-0.8,27.3c-5.3,10.2-11.8,15.5-29.9,24.6c-16.9,8.5-24.1,15.6-24.1,23.9
		c0,5.7,7.3,13.5,20.5,22.1c14.5,9.4,16.1,11.4,16.2,20.5c0.2,10.8-3.3,19.4-10.1,25.4c-5.5,4.8-7,5.3-18.3,5.3
		c-15.1,0-25.4,4.4-31.6,13.5c-3.5,5.2-4.3,8.3-4.3,18.7c0,25.9-5.4,49.7-14.4,63c-5.3,7.9-11.5,8.2-27.1,1.6
		c-7.4-3.2-15.4-5.3-19.9-5.3h-7.5l-1.8,9.1c-1,5-2.6,14.5-3.6,21.2c-3.2,21.2-6,27.3-18.3,39.2c-11.5,11.2-26.1,20.3-32.3,20.3
		c-2.1,0-8.8-5.3-16.4-13c-13-13.1-19.3-16.6-24.4-13.4c-5.1,3.2-10.4,15-14.1,31.6c-4.4,19.5-7.7,26.4-16.5,34.8
		c-9.6,9.2-29,19.3-36.4,19c-3.3-0.1-13.5-2.3-22.7-4.8c-27.4-7.5-40.1-5.9-47.1,6c-8.4,14.1-28.9,31.9-47.8,41.5
		c-13.2,6.7-23,1.4-34.7-18.6c-8.4-14.3-13.4-19.1-21.5-20.4c-7-1.1-8.7,0-35.2,24.1c-17.9,16.2-27.2,20.9-39.8,19.8
		c-11.3-0.9-16.3-4.4-26-18.4c-8.3-11.9-15.4-16.6-22.4-15c-2.5,0.6-12.9,7.5-23.1,15.5c-23.2,18.1-34.9,24-48.8,24.6
		C878.1,1778.9,871.4,1778.3,868.8,1777.3L868.8,1777.3z M730.1,1766.4c-10.3-3.5-44.6-22.4-73-40.1c-10.3-6.4-11-7.3-14.3-18
		c-1.9-6.2-4.6-16.6-6-23.2c-1.4-6.6-5.9-23.7-10.1-38c-9.8-33.6-11.3-41.5-11.3-57.8c0-16.1,3.2-27.7,10.7-39
		c6.9-10.4,22.6-20.9,34.8-23.2c17.7-3.4,173.5-24.5,192.9-26.2c25.8-2.2,52.8-7.3,78.6-15c17.2-5.1,23.5-6.1,37.1-6.2
		c22.7-0.1,37.6,5.6,72.5,27.6c19.7,12.4,34.2,19.9,46.4,23.9c8.9,2.9,9,3,6,6.4c-9.3,10.4-36,25.7-55.8,32.1
		c-25.9,8.3-45.1,9.1-95.8,3.7c-52.1-5.5-64.8-5.9-87.2-2.5c-50.5,7.5-89.6,23.8-109.4,45.7c-5.5,6.1-6,7.4-4.5,11.7
		c0.9,2.7,6,9.8,11.2,15.7c5.2,6,9.9,12.7,10.5,15.1c2.6,10.2-9.2,13.4-28.8,7.7c-7.4-2.1-14.2-3.6-15.1-3.3c-1,0.4-0.7,4.1,0.6,9.2
		c2.8,10.7,8.8,16.2,27.6,25.1c7.6,3.6,14.9,7.8,16.2,9.3c9.1,11-20.6,11.8-42.1,1.2c-15.4-7.6-28.2-18.5-46.1-39.3
		c-26.7-30.8-27.3-31.2-27.3-15.5c0.1,18.3,13.2,44.6,29.1,58.2c34.1,29.3,87.5,33.3,123.1,9.3c4.8-3.3,9.1-5.9,9.5-5.9
		c2,0,0.1,7.2-4.2,16.4c-6,12.6-19.1,25.3-32.4,31.4C761.4,1768.4,740.6,1770,730.1,1766.4L730.1,1766.4z M591.9,1683.2
		c-9.7-5-12.7-9.5-18.1-26.8c-6.1-19.7-10.9-26.2-22-29.9c-10.4-3.6-15.6-3.5-35.1,0.6c-18.2,3.8-24,3.3-29.7-2.8
		c-3.5-3.7-4.1-6.6-5-22.2c-0.6-10.8-1.9-19-3.3-20.6c-1.8-2.2-5.4-2.6-18.6-2.3c-15.3,0.4-16.5,0.2-19.6-3.6
		c-1.8-2.2-3.3-6.1-3.3-8.6c0-4.6,8.1-22.7,12.6-28.3c4.6-5.7,10.1-3.4,34,14.3c12.8,9.5,29.9,20.6,37.9,24.6
		c13.9,6.9,15.3,7.2,30.2,7.2c12.7,0,17-0.7,22.6-3.7c16.3-8.8,26.8-27.4,22.2-39.4c-1.3-3.4-9.5-7.8-14.5-7.8c-2,0-5.6-2-8-4.3
		c-3.4-3.4-4.2-5.8-3.8-10.8c0.4-5.3,1.3-6.6,4.7-7c5-0.7,36,9.5,40.3,13.2c5,4.3,4,16.3-2.1,24.7c-13,18-14.6,42-5.7,85.3
		c7.7,37.3,8.3,43.5,4.6,47.6C608.8,1686.7,599.2,1687,591.9,1683.2L591.9,1683.2z M1519.6,1578.5c0.7-1.1,6.3-8.3,12.5-16
		c43.9-54.3,71.7-118.9,80.6-187.4c2.6-20.2,2.6-22-0.8-44.2c-2-12.7-3.6-30.6-3.6-39.8c0-16.4-5.2-47.6-11.1-67.2
		c-3.8-12.4-3.5-13.7,5.1-24.3c15.2-18.7,22.1-36.8,30.9-81.6c10.3-52.3,15.8-95.5,22.5-177.4c5.7-69.5,7-141.9,3-164
		c-1.2-6.6-6.1-20.7-10.8-31.4c-11.9-26.8-13.4-35-9.3-50c4.5-16.5,14.6-35.8,25.4-48.6c9.4-11.1,27-26.1,36.3-30.8
		c6.6-3.4,13.5-1.9,13.5,2.9c0,5.9,4.9,13.5,10.7,16.5c3,1.6,10.9,3.8,17.6,4.9c6.6,1.1,12.3,2.9,12.7,3.9c0.3,1-3.2,4.3-7.8,7.3
		c-4.7,3-9.9,7-11.6,8.9c-3,3.3-3,3.6,0,6.8c1.7,1.9,8.6,5.5,15.4,8c6.8,2.5,16.5,6.2,21.6,8.1c9.6,3.7,21.6,13.8,20.4,17.3
		c-0.4,1.3-7.8,2.2-22.5,2.5c-14,0.3-21.9,1.1-21.9,2.3c0,7.1,13.6,16.7,35.4,24.9c17,6.4,24.1,10.4,29.2,16.4
		c8.3,9.9,7.5,10.3-22.4,10.3c-24.7,0-26.8,0.2-26.3,3c1.1,5.6,16.8,13.9,43.2,22.8c14.5,4.9,27.5,9.5,28.8,10.3
		c3.1,2,1.5,13.1-2.6,17.6c-3.9,4.3-9.3,5.1-39,5.5c-16.4,0.2-26.1,1.1-27.4,2.4c-1.5,1.5,0.6,4.6,8.7,12.5
		c8.6,8.5,15.4,12.9,35.2,22.8c13.4,6.7,25.1,13.4,25.9,14.8c2.3,4.1-3.2,10.7-10,11.9c-3.3,0.6-12.4,0.3-20.1-0.8
		c-28-3.8-35.9-1.7-30.7,7.9c3.6,6.7,13.3,13.1,32.3,21.1c15.6,6.6,28,14.9,28,18.8c0,2.2-7.1,4.9-21.4,8.1c-8.8,2-16,2.4-27.8,1.5
		c-10.4-0.8-16.3-0.5-17.1,0.6c-0.6,1,6.6,9.4,15.9,18.8c15.8,15.7,24.4,27.8,24.4,34.1c0,2.8-3.4,3.9-29.4,9.7
		c-9,2-17.1,4.3-17.9,5.1c-1.4,1.4,10.2,11.3,35.6,30.3c6.3,4.7,11.6,9.6,11.6,10.7c0.1,3.1-8.5,9.2-13,9.2
		c-7.2,0-21.4,3.7-21.4,5.6c0,1,4.2,5.9,9.3,10.9c7.4,7.1,9.9,11.1,12.2,18.8c4.9,17,1.1,20.4-16.5,14.8c-6.1-1.9-12.4-3.5-14-3.5
		c-5.8,0-6.4,5.4-2.1,19c8.7,27.2,5.3,33.2-16.7,29.6c-6.8-1.1-12.8-1.6-13.4-1c-0.6,0.6,2.6,8,7.1,16.4c8.7,16.2,9.9,22.6,5.5,28.9
		c-2.4,3.4-4.2,3.8-15.6,3.8h-13l1.4,8.2c0.8,4.5,1.3,17.5,1.3,28.9c-0.1,18.5-0.8,23.2-6.5,43.6c-6.1,21.7-6.5,24.7-7.9,59.6
		c-1.3,33.7-1.8,37.8-6.2,49.7c-11,30.3-28.5,57.1-61.6,94.4c-22.8,25.7-62,63.4-79.6,76.7C1540.9,1573.9,1514.9,1586,1519.6,1578.5
		L1519.6,1578.5z M401.9,1558.8c-1.4-12.7,0.4-18.2,11.4-35.3c3.4-5.2,11-18.9,17-30.3c15.4-29.3,21-36,46.1-55.4
		c12.1-9.4,26-20.6,30.8-24.9c4.8-4.3,12.2-10.5,16.5-13.8c4.3-3.3,24.5-20.3,44.9-37.7c56.5-48.3,86.7-70.3,120.1-87.6
		c19.4-10.1,22.9-10.7,31.3-6.2c8,4.3,45.7,40,44.4,42.1c-2.3,3.8-25.4,17.3-53.6,31.4c-16.2,8.1-32,16.8-35,19.4
		c-6.9,5.8-13.1,18-27.9,55.1c-19.6,49.3-23,55.7-35.8,68.7c-6.3,6.4-12.4,11.7-13.5,11.7c-1.1,0-4.9-9.3-8.6-20.7
		c-5-15.9-7.3-20.7-9.5-20.7c-5.2,0-32.8,8.6-42.6,13.2c-19.5,9.2-28.6,21.7-28.7,39.5c-0.1,19.6,6,25.3,36.9,33.7
		c20.5,5.6,31.1,10.6,31.1,14.8c0,5.3-32.7,2.3-58.2-5.4c-13.2-4-14.5-4.8-18.5-11.6c-2.3-4-7-14.9-10.4-24.3
		c-6.1-16.9-11.8-27.1-15-27.1c-2.8,0-19.7,18.6-33,36.3c-19.5,25.9-36.3,46.6-37.7,46.6C403.7,1570.2,402.6,1565.1,401.9,1558.8z
		 M377.7,1510.8c-3.5-5.3-6-19.9-6-35c0-16.9-1.5-18.4-23.6-22.2c-21.5-3.7-32.5-7.1-38-11.9c-3.7-3.2-4.2-4.7-3.2-9.8
		c0.9-4.6,2.7-6.9,7.9-9.9c8.2-4.7,12.7-11,11.2-15.7c-1.4-4.4-9.7-9.1-41.5-23.6c-14.2-6.5-26.5-12.6-27.1-13.6
		c-0.7-1-2.1-5.6-3.2-10.2c-2.4-10.1-0.6-12.8,13.3-19.4c6.4-3,9.2-5.4,9.2-7.7c0-7.6-4.2-12-20.3-21c-18.3-10.3-30.3-20-34.3-27.7
		c-2.2-4.3-2.3-6.5-0.6-13.7c1.9-7.7,2.8-8.9,10.4-12.8c21.4-10.8,17.7-22.1-12-37c-11.9-6-13.8-7.6-16.4-14
		c-3.6-9-2.5-12.6,5.5-17.4c9.6-5.8,14.2-10.4,14.2-14.4c0-4.4-8.6-12.8-31.5-31c-18.7-14.8-22-18.7-22-25.2c0-6.1,5.2-10.5,21-17.7
		c20.7-9.5,20.5-13.6-2-34.1c-17.4-15.9-20.3-21.6-17-33.7c3.5-12.7,6.8-13.8,20.5-6.9c4.7,2.4,9,4.3,9.5,4.3c0.5,0,1.7-1.9,2.6-4.2
		c3-7.8-0.8-14.5-17.7-31c-18.5-18.1-21.4-24-23.1-47l-1-14l5.3-3.8l5.3-3.8l8.2,5.2c9.7,6.1,10.4,6.3,11.8,2
		c1.8-5.8-2.4-19.6-12.5-40.8c-8.6-18.1-9.8-21.9-9.5-30c0.2-5.1,0.6-9.6,1-9.9c0.4-0.4,3.1,0.1,6.2,0.9
		c13.7,3.9,26.8-4.2,28.8-17.7c0.8-5.3-0.2-11.4-3.4-21.9c-6.6-21.8-6.6-21.8,7.7-26c6.6-2,14.2-5.4,16.8-7.6l4.7-4l-2.1-32.6
		c-1.2-17.9-2.1-35.5-2.1-39.1l0-6.5l8.6,4.3c23.3,11.8,27.9,1.4,23.5-53c-1.7-21.2,0.4-32.8,6.9-37c3.4-2.3,5.1-2.2,14.2,0.1
		c12.1,3.1,17,3.4,18.5,0.9c0.6-1-1.7-10.8-5.2-21.7c-5.5-17.5-6-20.7-4.3-25.8c4.2-12.7,12.7-13.4,26.2-2.2l8.1,6.7l2.2-3.9
		c1.6-2.7,2.2-11.8,2.2-30.2c0-24.2,0.3-26.5,3.5-28.9c2.1-1.6,5.2-2.3,7.8-1.7c2.4,0.5,8.3,1.4,13.2,1.9c8.2,0.9,9.1,0.6,11.9-3.6
		c2.4-3.7,2.7-6.4,1.6-14.4c-3.6-26.5-1.9-29.1,19.6-30c16.7-0.7,24.2-3.5,27.5-10.3c1.2-2.5,4.1-13.7,6.6-25
		c5.7-26.6,5.6-26.2,10.5-29.4c4-2.6,4.7-2.5,14.4,3.5c13.5,8.3,18.9,8.2,27.7-0.6c5.4-5.4,7.7-9.8,11.1-21.2
		c2.3-7.9,4.8-16.9,5.4-20c0.7-3.3,3-6.9,5.5-8.5c3.8-2.5,5.5-2.6,14.1-0.6c16.6,3.8,15.3,4.6,24.2-15.4
		c11.3-25.3,17.2-27.9,32.8-14.5c6,5.1,8.9,6.4,14.9,6.5c10.5,0.2,15.5-4.1,26.9-23.1c12.4-20.6,14.7-21.9,33.9-19.4
		c20.2,2.7,22.7,1.5,32.7-15.5c9.5-16.1,14.3-20.4,22.6-20.4c5,0,7.3,1.4,13,7.8c9.7,10.8,13.7,10.5,30-1.9c9-6.9,11.9-7.2,20.4-2.2
		c3.4,2,9.4,3.8,13.3,3.9c6.8,0.2,7.7-0.5,21.9-15.8c13-13.9,15.6-16,20.5-16c7.4,0,15.6,3.6,27.7,12c16.3,11.4,20.5,11.1,37.8-2.3
		c5.5-4.3,12.6-8.3,15.8-9c5.3-1.1,6.4-0.4,14.8,8.6c9.8,10.6,14.1,11.9,19.3,6c5.1-5.8,17.3-10.5,23.4-9.2
		c2.9,0.6,9.1,4.6,13.8,8.8c4.7,4.2,9.2,7.6,10,7.6c0.8,0,6.4-3.2,12.5-7.2c13.4-8.7,18.7-9.1,26.2-1.9c19.5,18.6,32,20,53.1,5.7
		c8.8-6,12.1-6.3,22.6-2.6c7.5,2.7,25.8,15.3,25.8,17.9c0,1.7-116.7,40.4-135.6,44.9c-11.5,2.8-22.8,3.5-68.2,4.3
		c-59.8,1-71.5,2.1-109.5,9.9c-33.3,6.9-54.7,14.3-86.6,30c-28.3,14-53.8,30.3-87.2,55.9c-11.9,9.1-30.9,23.5-42.3,32
		c-44.5,33.3-63.9,50-108.6,94.2c-58.7,58.1-79.5,84.5-107,136.5c-32.5,61.4-54.9,140.4-64.6,227.1c-4.4,39.4-4.5,157.9-0.1,188.1
		c5.3,36.5,11.9,56,34.7,102c13.5,27.3,21.8,46.4,24.4,56.1c2.2,8.1,6.1,19.8,8.7,26c13.2,31.3,49.6,82.3,80.3,112.3
		c23.1,22.5,26.6,27.9,24.2,36.3c-2.4,8.5-7.9,13.3-24.9,21.9c-22.2,11.2-35.4,24.9-47.6,49.4
		C397.3,1507.9,383.7,1519.8,377.7,1510.8L377.7,1510.8z M1135.1,1511.4c-4.3-0.8-16-2.3-26.1-3.2c-22.9-2.1-30.4-5.5-55.1-25.4
		c-25.2-20.4-35.1-25-57.4-26.9c-24-2-40.5-5.8-53.1-12.1c-9-4.5-11.9-7.2-20.4-19.3c-5.4-7.7-14.9-19.5-21.1-26.2
		c-6.2-6.6-14.9-16.4-19.3-21.6c-4.9-5.7-15.6-14.6-27.2-22.5c-10.6-7.1-27.5-19.6-37.7-27.8c-10.2-8.1-35.2-27.4-55.6-42.9
		c-40.2-30.4-51.8-40.7-67.9-60.4c-11.6-14.2-35-53-37.5-62.4c-0.9-3.3-3.6-12.2-6-19.7c-3.2-10-4.3-17.4-4.3-27.9
		c0-13.4,0.5-15.2,7.3-28.5c5.1-10,9.7-16.2,15.7-21.3c4.7-3.9,12.7-10.8,17.9-15.2c5.2-4.4,13.8-10.3,19.2-13
		c9.8-4.9,10.1-4.9,41.8-4.8c28.8,0.1,34.6,0.6,58.7,5.5c14.7,3,37.3,7.1,50.1,9.1c70.2,11.1,97.8,18.8,143.5,40.3
		c10.9,5.1,24.4,12.3,30.1,15.9c23,14.6,129.7,83.8,157.4,102c50.6,33.3,64.6,41.6,124.1,74.1c30.7,16.8,37,21.8,42.1,33.6
		c9.4,21.9,5.1,44.4-13.4,69.3c-9.6,12.9-25.8,26.2-41.2,33.8l-12.8,6.3l-19.6-1.9c-16.6-1.6-26.2-3.9-63.3-15.6
		c-49.2-15.5-78.3-24-122.3-35.7c-17.1-4.6-34.7-10.4-40.6-13.5c-13.9-7.3-34.1-27.6-47.5-47.8c-15.5-23.3-24.7-35.1-40.5-51.6
		c-38.5-40.4-83.7-69.4-134.8-86.4c-32.9-11-81.7-19.4-79.9-13.8c1.2,3.7,12.3,9.3,60,30c50.6,22,59.5,26.6,85.6,45.2
		c27.2,19.4,45.6,37.9,79.4,80.1c29.4,36.6,51.3,59.8,66.5,70.2c13.1,9,52.9,30.6,88.2,48c29.5,14.5,34.7,17.7,42.8,26.2
		c5.1,5.3,9.9,11.6,10.8,13.9c2.8,7.4,1.8,21.4-2,29.3C1163.2,1510.1,1152,1514.7,1135.1,1511.4L1135.1,1511.4z M1271.5,1457.8
		c-4.3-0.8-10.6-3.1-14.2-5.1c-3.5-2-10.8-5.1-16.3-7c-5.4-1.9-11.3-4.7-13-6.2c-9-8.1,2.4-11,27.1-6.9c22.5,3.8,30.9,3.6,47.1-0.7
		c19.8-5.3,32.2-12.6,48-28.4c27.4-27.3,39-64.1,29.8-94.2c-5.5-18-14.2-27.5-42.7-46.4c-14.1-9.4-32.9-20.6-41.8-24.9
		c-15.8-7.7-43-16.7-50.5-16.7c-4.5,0-21.7-8.3-21.7-10.5c0-3,18.3-13.9,29.4-17.4c30.9-9.9,73.2-3.3,95.6,14.7
		c4.9,4,15.1,15.5,22.7,25.7s15.2,19.8,16.8,21.5c2.9,2.9,3,2.8,3-2.2c0-13.8-10.9-38.4-23.2-51.9c-9.8-10.9-20.9-18.1-38.5-25.2
		c-11.8-4.7-15.5-5.4-29.9-5.4c-13.7,0-20.9,1.2-43.6,7.2c-28.9,7.6-52.4,9.8-56.1,5.1c-2.4-3.1,0.4-12,5.3-16.5
		c4.1-3.9,23.3-12.6,45.2-20.6c24.8-9,60.3-7,85.5,4.9c16.5,7.8,42.8,27.3,55.9,41.4c28.1,30.3,38.9,62.3,36.9,109.3
		c-1.5,35.7-6.6,48.5-39.1,97.5c-19.4,29.2-28.9,38.7-49.4,48.7C1318.2,1458.3,1293.3,1462,1271.5,1457.8L1271.5,1457.8z
		 M1398.5,1159.2c-7.9-0.9-17.2-4.5-39.5-15.3c-37.9-18.4-48-21.7-66.7-21.7c-11.6,0-18.5,1.1-32.8,5.5c-33.6,10.2-53.5,11.3-70.1,4
		c-4.9-2.2-14-9.8-25.3-21.3c-9.7-9.9-25.4-23.7-34.9-30.7c-31.1-23-40.6-34.9-40.6-51.1c0-10.3,3.3-15.3,19.4-30
		c23.5-21.3,45.6-57.9,58.3-96.5c6.3-19.1,6.7-19.8,34.2-51.5c45.3-52.4,51.7-64.4,56.5-105.3c5-42.7-4.5-72.7-29.1-92.4
		c-19.3-15.4-37.4-21.3-65.8-21.3c-11.9,0-24.8,1-30.2,2.3c-24.5,6.1-56.9,27-88.7,57.2c-28.5,27.1-48.7,58.8-56.3,88.5
		c-1.9,7.4-4.6,26.1-6,41.5c-2.6,28-5,39.5-7.8,36.5c-4.4-4.8-12.3-35.6-13.7-53.4c-3.6-45.2,5.4-88.9,27.4-133
		c13.4-26.9,29.5-49.2,50.9-70.7c53-53.2,108.4-71.5,177.6-58.5c62.7,11.7,118.8,55.3,139.5,108.2c5.2,13.4,5.6,15.6,5.8,38.4
		c0.4,33.2,2.2,37,29.5,60.9c8.4,7.4,15.7,15.5,18.6,20.8c4.3,7.9,4.7,10.2,4.7,28.2c0,18.2,0.4,20.4,5.1,30.5
		c7,14.7,13.2,23.4,26.4,36.8c13.3,13.5,16.3,20.8,18.5,45.8c1.1,12.6,3.2,21.7,7.7,34.2c6.9,18.9,10,39.7,7.8,51.7
		c-2.5,13.2-8.5,35.5-12,44.4c-3.2,8.1-15.5,48.6-18.1,59.6c-0.7,2.8-1.9,12.5-2.6,21.4c-1.4,16.1-1.5,16.3-8.9,23.9
		c-8.4,8.7-18.4,14.4-24.3,14.1C1410.6,1160.5,1404.2,1159.9,1398.5,1159.2L1398.5,1159.2z M994.3,1067.7
		c-6.6-1.8-22.2-6.4-34.5-10.3s-23.3-7-24.5-7c-4.2,0-9.2-8.9-9.2-16.3c0-27.2,14.1-67.9,36.8-106.5c5.4-9.1,11.4-20.4,13.5-25
		c8.5-19.4,19.2-55.1,24.1-80.1c2.9-14.7,6.4-32.5,7.8-39.6c2.9-14.6,9.7-27.8,24.7-47.9c46.8-62.8,112.1-90.8,160.6-68.7
		c11.4,5.2,25.3,19.2,32.7,33c17.5,32.8,13.7,69.4-10.6,103.2c-4.2,5.8-15.9,19.5-26.1,30.4c-23.1,24.8-30.9,35.2-37.4,49.8
		c-2.8,6.3-6.7,14.9-8.6,19.1c-5.6,12.4-21.1,34.5-37,52.9c-8.2,9.5-22.1,25.8-30.9,36.3c-8.8,10.4-21.7,25.7-28.7,33.9
		c-7,8.2-18.2,22-24.9,30.6c-6.6,8.6-12.9,15.7-13.8,15.6C1007.2,1070.9,1001,1069.4,994.3,1067.7L994.3,1067.7z M670.5,945.1
		c-4.8-6.6-13.8-16.6-19.9-22.2c-6.1-5.6-11.1-11.1-11.1-12.1c0-1,8-7.5,17.7-14.3c21.8-15.3,28.6-21.5,31.8-28.8
		c4.3-10.1,1.7-16.3-11.5-27.2c-14.2-11.6-21.7-13.6-27.5-7.5c-2.1,2.2-10,12.9-17.6,23.6c-7.6,10.7-14.9,19.9-16.2,20.5
		c-2.3,0.9-23.5-10.9-34.6-19.3c-5.3-4-5.3-4-3.6-13.8l1.8-9.8l21.7-17.5c11.9-9.6,34.9-28.8,51.1-42.6c16.1-13.8,41.1-35,55.6-47.1
		s31.6-27.9,38.2-35.2c15.5-17,17.7-16.7,17.7,3.1c0,18.9,4.4,32.7,17.4,55.1c13.8,23.6,17.6,33.3,17.7,44.9
		c0.2,12.1-3,18-16.7,31.6c-12.5,12.4-46,61.8-61.1,90.1c-19.2,35.9-23.1,40.4-35.4,40.5C679.6,957.1,678.6,956.3,670.5,945.1
		L670.5,945.1z M1465.6,853.1c-14-3-29.4-23.3-33.6-44.7c-1.6-7.9-1.4-11.6,0.9-20.6c3.1-12,6.7-17.5,22.8-34.5
		c29.8-31.5,57.2-66.2,84.7-107.1c22.6-33.8,35.9-50.5,53.8-67.6c40-38.4,87-59.7,142.4-64.5c11.8-1,13.5-0.8,14.5,1.8
		c0.9,2.2-1.8,5.7-10.4,13.5c-13.5,12.3-14.9,15.9-14.9,38.4c0,18.6,1.4,17.1-25.9,28.2c-23.8,9.7-30.3,13.7-43.7,26.6
		c-13.5,13.1-21.6,25.3-31.8,48.4c-26.2,59.3-51.7,97.4-101,151.4C1498.8,849.3,1484.2,857.1,1465.6,853.1L1465.6,853.1z
		 M562.2,821.9c-0.9-1.2-3.9-9.9-6.6-19.4c-4.9-17.1-4.9-17.7-4.5-57.9c0.4-37.2,0.8-42,4.9-57c6-22.3,10.9-34.4,26.5-64.8
		c27.6-54,35.1-66.8,57.4-98.7c18.9-27,26.4-36,42.8-51.7c65.6-62.8,220.7-135.3,398.1-186.3c78.7-22.6,138.8-32,204.5-32
		c46.8,0,74.8,5.3,109,20.5c15.8,7.1,21.5,10.6,27.7,17.2c12.6,13.4,15.7,30.1,7.5,39.9c-8.8,10.4-11.4,11.2-69.1,20.8
		c-48.3,8-74.3,16.8-125.1,42.3c-28.6,14.3-45.5,23.6-81.1,44.5c-44,25.8-53.1,27.8-122.6,28.2l-50.9,0.3l-17.7,6.2
		c-47,16.3-90.2,44.4-127.5,82.7c-18.5,19-28.6,31.6-45.6,56.6c-16.7,24.7-31.9,40.2-65.6,67.1c-16.5,13.2-41,35.9-71.7,66.7
		c-46.5,46.5-62.2,61.2-76.6,71.5C567.4,824.6,564.7,825.2,562.2,821.9L562.2,821.9z M911.6,795.3l-24-11.5l-26.9-1.3
		c-45.5-2.2-54.7-7.9-67.1-41.3c-10-27-11.3-39.5-5-49.1c1.5-2.2,9.3-7.8,17.4-12.3s28.2-18.3,44.6-30.6
		c41.9-31.4,52.9-38.6,73.5-48.2c10-4.7,20.1-10,22.6-11.9c10.7-8.2,25.7-24.6,40.3-43.9c19.7-26,37.1-43.3,50.5-50.3
		c9-4.7,12.7-5.5,27.6-6.4c29.7-1.6,56.9-10.7,85.9-28.7c89.7-55.5,107.6-65.8,132.6-76.2c27.8-11.5,70.8-18.2,70.8-11
		c0,4.8-10.9,13.4-23.5,18.7c-30.1,12.5-80.8,39.8-107.9,58.1c-5.3,3.6-21.5,15.9-36.1,27.5c-41.6,33-59.3,41.9-89,44.5l-13.8,1.2
		l-3.1,9.5c-2.7,8.4-4.6,10.7-16.2,19.9c-39.5,31.2-77.4,77-97.3,117.4c-17,34.6-21.9,54.8-25.9,106.2c-1.8,23.7-3,31.1-5,31.1
		C936.1,806.8,924.8,801.6,911.6,795.3L911.6,795.3z M1395,731.1c-2.9-1.7-8.9-7.3-13.4-12.3l-8.2-9.1V673
		c0-42.5-2.3-36.2,23.5-63.4c24.8-26.1,44.4-57.1,86.9-137.6c21-39.8,32.8-59.2,49.5-81.4c12.7-16.8,35.2-40.1,49.1-50.9
		c16.8-13,80.7-37.1,110.1-41.6c6.1-0.9,7.3-0.6,7.3,1.7c0,5-6.5,15.4-17.3,27.7c-12.7,14.4-15.4,20.1-21.5,44.1l-4.6,18.2
		l-10.9,4.7c-29.3,12.7-52.4,31-67.9,53.3c-12.5,18.1-22,38.1-40.9,85.9c-24.4,61.6-53.5,119-74.2,146
		c-9.3,12.2-44.4,50.8-47.9,52.7C1409.8,735.3,1400.6,734.5,1395,731.1L1395,731.1z M798.8,662.2c-5.4-0.9-10.8-8.5-10.8-14.9
		c0.2-21.6,49.1-83.5,90-113.7c41.6-30.7,94.4-54.1,125-55.2c12.9-0.5,13.9-0.3,14.3,3.1c0.5,3.8-9.5,18.5-24.5,35.9
		c-15.6,18.1-44,42.3-92.5,78.8c-26.1,19.7-53.3,41-60.4,47.5C823.4,658.4,810.5,664.3,798.8,662.2L798.8,662.2z M1350,604
		c-4.7-2.3-15.9-11-24.9-19.3c-18-16.5-18.3-17.1-12.8-31.4l2.8-7.4l9.8,0.5l9.8,0.5l0.5-11c0.5-10.4,0.7-10.9,4.3-9.9
		c8.9,2.6,14.8,2.9,18.3,1.1c3.4-1.8,3.7-3.2,3.3-14.8c-0.6-16.7,0.8-18.1,12.1-11.8c4.8,2.7,9.3,4.3,9.9,3.7
		c0.7-0.7-0.3-6.3-2.2-12.5c-3.8-12.5-3.6-13,6.9-16.4c7.2-2.3,7.6-3.8,3.9-12.8c-3.8-9-3.3-12.7,1.7-13.9c6.8-1.7,8.6-6.9,6.2-17.9
		c-1.2-5.1-1.8-9.6-1.5-10c0.3-0.3,3.9,0.1,8,1c7.8,1.7,14.1-0.1,14.1-4.1c0-1.2-1.6-4.4-3.4-7.3c-4-6-4.6-19.3-1.2-24
		c2.2-3,2.6-3,9.4,0.5c13.1,6.7,17.5,3.9,21.2-13.3c1.1-5,3-9.6,4.2-10c1.2-0.5,5.5,1.3,9.5,3.9c7,4.6,7.4,4.7,11.8,1.9
		c9.7-6.2,17.1-8.6,28.3-9.5c13.3-1,20.3,2,20.3,8.8c0,2.2-6,12-13.6,22.3c-18,24.3-28,42.1-50.4,89.7c-22,46.7-33.1,67.8-45.6,86.8
		C1385.4,605.6,1370.9,614.4,1350,604L1350,604z M1554.2,572.4c-2.5-4-3.1-16.3-1.2-25.3c1.1-5.4,5.8-19,10.4-30.1
		c4.6-11.1,9.6-24.6,11.2-30.1c3.1-10.7,7.5-15.4,17.6-18.7c17.4-5.7,32.5,11.5,31.1,35.5l-0.4,6.9l9.4,0.5
		c5.2,0.3,10.5,1.4,11.9,2.5c2,1.7,1.6,2.7-2.7,6.4c-2.8,2.4-13.9,12.4-24.7,22.2c-13.6,12.4-23.4,19.6-31.8,23.7
		C1572.7,572,1556,575.5,1554.2,572.4L1554.2,572.4z M1370.9,393.4c-5.6-5.6-5.9-15.9-0.7-22.5c6-7.7,19.6-13.4,34.8-14.7
		c7.5-0.6,13.9-0.6,14.4,0.1c0.4,0.7-5.5,5-13.1,9.5c-14.7,8.7-18.4,12.8-21.6,23.9C1382.1,398.3,1377.1,399.7,1370.9,393.4
		L1370.9,393.4z"/>
</g>
</svg>
