
<svg xmlns="http://www.w3.org/2000/svg" version="1.1" xmlns:xlink="http://www.w3.org/1999/xlink" preserveAspectRatio="none" x="0px" y="0px" width="1280px" height="1024px" viewBox="0 0 1280 1024">
<defs>
<g id="Layer25_0_FILL">
<path fill="#292929" stroke="none" d="
M 287.45 344.65
Q 289.4796875 346.48125 294.5 345.3 300.35 344 306.8 339.5 313.2 335 316.35 329.95 319.15 325.4 318.05 322.8 317.85 322.5 317.65 322.2 315.7 319.5 309.9 320.8 304.05 322.1 297.65 326.65 291.25 331.1 288.1 336.2 284.9 341.25 286.8 343.95 286.95 344.25 287.2 344.5 287.25 344.55 287.35 344.55
L 287.4 344.6 287.45 344.65
M 375.6 197.8
Q 375.5 197.35 375.35 196.9 373.9 193.05 366.4 192.7 358.9 192.4 349.7 195.8 340.5 199.15 335 204.25 329.5 209.4 330.95 213.25 331.05 213.65 331.25 214.05 331.3 214.1 331.4 214.2
L 331.45 214.25
Q 333.3 217.15 339.85 217.4 347.35 217.75 356.55 214.4 365.75 211 371.25 205.85 376.15 201.3 375.6 197.8
M 905.65 196.9
Q 905.5 197.35 905.4 197.8 904.85 201.3 909.75 205.85 915.25 211 924.45 214.4 933.65 217.75 941.15 217.4 947.7 217.15 949.55 214.25
L 949.6 214.2
Q 949.7 214.1 949.75 214.05 949.95 213.65 950.05 213.25 951.5 209.4 946 204.25 940.5 199.15 931.3 195.8 922.1 192.4 914.6 192.7 907.1 193.05 905.65 196.9
M 987.15 345.3
Q 992.1703125 346.48125 994.15 344.65
L 994.25 344.6 994.3 344.55
Q 994.4 344.55 994.45 344.5 994.7 344.25 994.85 343.95 996.75 341.25 993.55 336.2 990.4 331.1 984 326.65 977.6 322.1 971.75 320.8 965.95 319.5 964 322.2 963.8 322.5 963.6 322.8 962.5 325.4 965.3 329.95 968.45 335 974.85 339.5 981.3 344 987.15 345.3 Z"/>

<path fill="#454545" stroke="none" d="
M 339.85 217.4
Q 333.3 217.15 331.45 214.25 380.35 294.55 407.5 376.2 436.3646484375 414.9818359375 455.25 451.95 437.5041015625 439.0982421875 415.65 430.85 380.2 382.75 318.05 322.8 319.15 325.4 316.35 329.95 313.2 335 306.8 339.5 300.35 344 294.5 345.3 289.4796875 346.48125 287.45 344.65 341.721875 396.433203125 379.45 453.75 417 483.4 442.15 514.1
L 469.3 463.75 513.3 417.2
Q 492.45 384.45 458.7 360.2 431.4 290.55 375.6 197.8 376.15 201.3 371.25 205.85 365.75 211 356.55 214.4 347.35 217.75 339.85 217.4
M 994.15 344.65
Q 992.1703125 346.48125 987.15 345.3 981.3 344 974.85 339.5 968.45 335 965.3 329.95 962.5 325.4 963.6 322.8 901.45 382.75 866 430.85 843.5078125 439.3390625 825.3 452.7 844.341015625 415.37734375 873.5 376.2 900.65 294.55 949.55 214.25 947.7 217.15 941.15 217.4 933.65 217.75 924.45 214.4 915.25 211 909.75 205.85 904.85 201.3 905.4 197.8 849.6 290.55 822.3 360.2 788.55 384.45 767.7 417.2
L 813.2 465.35 839.5 514.1
Q 864.65 483.4 902.2 453.75 939.928125 396.433203125 994.15 344.65 Z"/>
</g>

<g id="Layer22_0_FILL">
<path fill="#121212" stroke="none" d="
M 931.7 514.45
Q 882.6 482.25 844.5 436.2
L 435.95 436.2
Q 397.9 482.25 348.8 514.45 332.8 551.8 318.35 598.25 314.7 609.8 311.25 621.9 308.2 632.45 305.2 643.4 302.4 654 299.6 664.95 296.85 675.6 294.25 686.7 291.65 697.35 289.1 708.45 286.7 719.15 284.35 730.25 282 741 279.75 752.1 277.55 762.85 275.45 774 272.85 787.2 270.35 800.9 267.5 816.45 264.75 832.6 270.55 840.85 273.5 844.05 279.85 850.8 286.45 857.2
L 309.3 877.6
Q 316.1 857.85 320.4 844.05 362.65 708.6 427.85 646.4
L 465.5 801.65 513.9 854.65 529.7 970.5
Q 581.45 978.25 639.8 977.75 640 977.75 640.2 977.75 674.35 978.05 706.25 975.55 730.75 973.6 753.9 970
L 769.6 854.65 815 801.65 852.6 646.4
Q 924.5 714.95 969.45 878.6
L 996.15 854.6
Q 1004.45 846.4 1016.1 834.6 1013.15 817.4 1010.15 800.85 1007.65 787.15 1005.1 773.95 1002.95 762.8 1000.75 752.05 998.5 740.95 996.2 730.2 993.75 719.1 991.35 708.4 988.85 697.35 986.3 686.65 983.6 675.6 980.9 664.95 978.1 653.95 975.25 643.4 972.25 632.4 969.25 621.9 965.75 609.75 962.15 598.2 947.7 551.8 931.7 514.45
M 935.35 629.15
L 965.8 621.9 935.35 629.15 940.55 650.8 971.8 643.4 940.55 650.8 945.75 672.5 977.45 664.95 945.75 672.5 950.95 694.25 982.85 686.65 950.95 694.25 956.1 715.95 987.9 708.4 956.1 715.95 961.3 737.65 992.75 730.2 961.3 737.65 966.45 759.4 997.3 752.05 966.45 759.4 971.65 781.1 1001.65 773.95 971.65 781.1 973.55 788.9
Q 978.05 807.7 996.8 803.2
L 1006.7 800.85 996.8 803.2
Q 978.05 807.7 973.55 788.9
L 971.65 781.1 966.45 759.4 961.3 737.65 956.1 715.95 950.95 694.25 945.75 672.5 940.55 650.8 935.35 629.15 934.1 623.85
Q 929.65 605.1 948.45 600.65
L 958.7 598.2 948.45 600.65
Q 929.65 605.1 934.1 623.85
L 935.35 629.15
M 287.8 730.25
L 319.15 737.65 324.35 715.95 292.55 708.45 324.35 715.95 329.5 694.25 297.7 686.7 329.5 694.25 334.7 672.5 303.05 664.95 334.7 672.5 339.85 650.8 308.65 643.4 339.85 650.8 345.05 629.15 314.7 621.9 345.05 629.15 346.35 623.85
Q 350.75 605.1 332 600.65
L 321.8 598.25 332 600.65
Q 350.75 605.1 346.35 623.85
L 345.05 629.15 339.85 650.8 334.7 672.5 329.5 694.25 324.35 715.95 319.15 737.65 314 759.4 308.75 781.1 306.9 788.9
Q 302.4 807.7 283.65 803.2
L 273.8 800.9 283.65 803.2
Q 302.4 807.7 306.9 788.9
L 308.75 781.1 278.9 774 308.75 781.1 314 759.4 283.2 752.1 314 759.4 319.15 737.65 287.8 730.25 Z"/>
</g>

<g id="Layer21_0_FILL">
<path fill="#494949" stroke="none" d="
M 558.4 908.4
Q 556.45 906 554.55 903.7 549.8 901.4 545 898.8 542.7 897.55 541.05 895.55 513.9 861.45 483.9 830.9 481.05 831.6 478.7 833.75 474.75 837.2 474.45 842.5 474.1 847.75 477.65 851.75 505.4 882.9 540.1 926.4 541.75 928.4 544 929.7 590.3 954.85 633.35 943.35 637.55 942.2 640.15 939 642.7 942.2 646.9 943.35 689.95 954.85 736.25 929.7 738.5 928.4 740.15 926.4 774.85 882.9 802.6 851.75 806.15 847.75 805.8 842.5 805.5 837.2 801.55 833.75 799.2 831.6 796.35 830.9 766.35 861.45 739.15 895.55 737.55 897.55 735.25 898.8 730.45 901.4 725.65 903.7 723.8 906 721.85 908.4 686.35 926.95 653.35 918.65 648.25 917.3 643.65 920 641.55 921.25 640.15 923 638.7 921.25 636.6 920 632 917.3 626.9 918.65 593.9 926.95 558.4 908.4 Z"/>

<path fill="#3D3D3D" stroke="none" d="
M 637.55 889.15
Q 632.95 886.45 627.85 887.8 594.85 896.05 559.35 877.5 558.45 876.35 557.45 875.2 551.15 872.4 544.75 868.95 541.75 867.3 539.95 864.4 514.3 822.8 475 792.95 470.6 793.45 467.4 796.8 463.7 800.6 463.8 805.85 463.9 811.1 467.7 814.85 475.9 822.75 483.9 830.9 513.9 861.45 541.05 895.55 542.7 897.55 545 898.8 549.8 901.4 554.55 903.7 595.75 922.8 634.3 912.5 637.8 911.55 640.15 909.2 642.45 911.55 645.95 912.5 684.5 922.8 725.65 903.7 730.45 901.4 735.25 898.8 737.55 897.55 739.15 895.55 766.35 861.45 796.35 830.9 804.35 822.75 812.55 814.85 816.35 811.1 816.45 805.85 816.55 800.6 812.85 796.8 809.65 793.45 805.2 792.95 765.95 822.8 740.3 864.4 738.5 867.3 735.5 868.95 729.1 872.4 722.8 875.2 721.8 876.35 720.9 877.5 685.35 896.05 652.4 887.8 647.3 886.45 642.7 889.15 641.25 890 640.15 891.1 639 890 637.55 889.15 Z"/>

<path fill="#292929" stroke="none" d="
M 821.25 781.6
Q 825.7 778.7 826.75 773.5 827.9 768.3 824.95 763.95 822.05 759.5 816.85 758.45 816.4 758.35 815.95 758.3 767.4 799 737.6 836.4 735.95 838.4 733.65 839.65 727.85 842.85 722.05 845.45 721.25 846.7 720.4 848 685.25 866.1 652.65 857.9 647.5 856.55 642.95 859.25 641.35 860.2 640.15 861.45 638.9 860.2 637.3 859.25 632.7 856.55 627.6 857.9 594.95 866.1 559.8 848 559 846.7 558.2 845.45 552.4 842.85 546.55 839.65 544.3 838.4 542.65 836.4 512.8 799 464.25 758.3 463.85 758.35 463.4 758.45 458.2 759.5 455.3 763.95 452.35 768.3 453.45 773.5 454.55 778.7 458.95 781.6 467.25 787.05 475 792.95 514.3 822.8 539.95 864.4 541.75 867.3 544.75 868.95 551.15 872.4 557.45 875.2 596.95 892.5 634.05 882.6 637.7 881.6 640.15 879.05 642.55 881.6 646.15 882.6 683.3 892.5 722.8 875.2 729.1 872.4 735.5 868.95 738.5 867.3 740.3 864.4 765.95 822.8 805.2 792.95 813 787.05 821.25 781.6 Z"/>

<path fill="#202020" stroke="none" d="
M 835.35 737.6
Q 835.95 732.35 832.6 728.2 829.3 724.05 824 723.55 818.8 722.95 814.65 726.25 754.75 774.55 719.3 818.35 683.8 836.9 650.8 828.65 645.7 827.3 641.1 830 640.6 830.25 640.15 830.6 639.65 830.25 639.15 830 634.55 827.3 629.45 828.65 596.45 836.9 560.95 818.35 525.5 774.55 465.55 726.25 461.45 722.95 456.2 723.55 450.95 724.05 447.65 728.2 444.3 732.35 444.9 737.6 445.4 742.8 449.55 746.2 457.15 752.25 464.25 758.3 512.8 799 542.65 836.4 544.3 838.4 546.55 839.65 552.4 842.85 558.2 845.45 598.25 863.4 635.9 853.35 638.25 852.75 640.15 851.4 642 852.75 644.35 853.35 682 863.4 722.05 845.45 727.85 842.85 733.65 839.65 735.95 838.4 737.6 836.4 767.4 799 815.95 758.3 823.1 752.25 830.65 746.2 834.8 742.8 835.35 737.6 Z"/>
</g>

<g id="Layer20_0_FILL">
<path fill="#454545" stroke="none" d="
M 517.7 721.6
Q 516.1 730.1 513.7 738 562.05 775.25 577.35 857.55 604.6 886.3 639.05 885.05 639.5 885 640 885 640.1 885 640.15 885
L 640.15 851.75
Q 640.1 851.75 640 851.75 639.95 851.75 639.85 851.75 605.65 853.15 585.05 833.45 577.15 803.85 559.95 776.55 558.35 755.55 547.45 736.05 544.45 745.15 550.35 760.15 543.85 745.95 538.75 745.7 536.9 697.65 516.6 642.85 523.15 692 517.7 721.6
M 640 72.3
Q 568.45 66.8 529.1 125.7 486.05 189.85 502.55 327.3 502.65 328.2 502.75 329.1 506.9 363.05 514.65 401.5
L 520.55 543.2
Q 520.55 543.7 520.6 544.2 522.5 596.55 555.45 634.25 590.5 674.35 640 674.35
L 640 72.3 Z"/>

<path fill="#313131" stroke="none" d="
M 511 572.05
Q 510.85 571.15 510.65 570.25 507.7 554.55 507.65 537.45
L 503.35 354.25
Q 483.7 391.7 445.25 413.05 440.15 424.35 435.95 436.2 412.55 502.5 416.3 587.55 455.35 663.3 517.7 721.6 523.15 692 516.6 642.85 513.7 641.7 510.8 640.6
L 502.1 607.8
Q 514.45 591.75 511 572.05 Z"/>

<path fill="#151515" stroke="none" d="
M 729.55 760.15
Q 736 745.95 741.1 745.7 743 697.7 763.25 642.95 723.65 658.8 690.15 686.9 662.35 698.15 640 695.95 617.65 698.15 589.85 686.9 556.3 658.75 516.6 642.85 536.9 697.65 538.75 745.7 543.85 745.95 550.35 760.15 544.45 745.15 547.45 736.05 558.35 755.55 559.95 776.55 577.15 803.85 585.05 833.45 605.65 853.15 639.85 851.75 639.95 851.75 640 851.75 640.1 851.75 640.15 851.75 674.25 853.1 694.8 833.45 702.7 803.85 719.9 776.55 721.5 755.55 732.4 736.05 735.4 745.15 729.55 760.15
M 692.4 725.5
Q 692.45 726.4 692.45 727.4
L 692.45 755.9
Q 701.35 760 703.2 769.8 703.3 774.5 698.25 775.6 700.75 782.95 694.55 784.25 695.1 786.15 695.3 788.15 695.15 793.4 690.5 796.8 692.3 800.6 693.3 805.5 691.1 812.35 686.2 815.15 687 817.85 687.35 820.9
L 684.4 831.5
Q 676.9 831.45 672.5 827.65 662.25 844.65 656.65 830.55 646 848.55 640.15 832.5 640.05 832.3 640 832.1 639.9 831.8 639.8 831.5 633.95 849.1 623 830.55 617.35 844.65 607.1 827.65 602.8 831.45 595.2 831.5
L 592.25 820.9
Q 592.6 817.85 593.45 815.15 588.5 812.35 586.35 805.5 587.3 800.6 589.15 796.8 584.5 793.4 584.3 788.15 584.55 786.15 585.05 784.25 578.85 782.95 581.4 775.6 576.3 774.5 576.4 769.8 578.15 760.45 586.4 756.25
L 586.4 727.4
Q 586.4 725.7 586.55 724.1 582.2 718.15 580.2 711
L 579.25 718.7 571.55 702.3
Q 567.9 687.35 572.5 682.05 578.8 684.5 582.15 697.5 588.4 684.6 594.7 698.45
L 601.05 708.45
Q 601.3 708.4 601.6 708.35 606.1 688.25 619.75 707.15 629.35 693.1 639.85 708.1
L 640.15 708.1
Q 650.65 693.1 660.25 707.15 673.95 688.15 678.45 708.55 678.65 708.6 678.85 708.65
L 685.3 698.45
Q 691.6 684.6 697.85 697.5 701.2 684.5 707.5 682.05 712.1 687.35 708.45 702.3
L 700.75 718.7 699.8 711
Q 697.55 719 692.4 725.5 Z"/>

<path fill="#000000" stroke="none" d="
M 601.6 708.35
Q 601.3 708.4 601.05 708.45
L 601.45 709.05
Q 601.55 708.7 601.6 708.35
M 640.15 708.1
L 639.85 708.1
Q 639.95 708.2 640 708.3 640.05 708.2 640.15 708.1
M 678.85 708.65
Q 678.65 708.6 678.45 708.55 678.5 708.75 678.55 709.05
L 678.85 708.65
M 692.45 727.4
Q 692.45 726.4 692.4 725.5 688.7 730.25 683.4 734.15 683.05 724.8 678.55 716.8 676.1 723 670.85 726.4
L 660.25 726.4
Q 657.35 723.4 657.35 719.65 657.15 723.85 654.45 727.4
L 643.85 727.2
Q 640.7 723.95 640 719.5 639.3 723.95 636.15 727.2
L 625.55 727.4
Q 622.85 723.85 622.65 719.65 622.65 723.4 619.75 726.4
L 609.15 726.4
Q 603.9 723 601.45 716.8 596.95 724.8 596.6 734.15 590.6 729.65 586.55 724.1 586.4 725.7 586.4 727.4
L 586.4 756.25
Q 587.3 755.75 588.3 755.35 587.05 757.45 586.4 759.5
L 586.4 767.75 589.3 763.05
Q 588.2 770.2 589.3 776 592.65 771.9 598.2 768.85 592.95 779.45 595.2 788.75 597.85 786.6 601.2 785.25 598.4 794.55 602.15 801.7 605.6 798.9 610.1 796.8 604.3 810.4 611.05 821.9
L 616.05 817.05 620 817.05 625.9 821.9 629.9 818
Q 637 817.85 639.8 823.8 639.9 823.6 640 823.4 642.9 817.85 649.75 818
L 653.7 821.9 659.6 817.05 663.55 817.05 668.55 821.9
Q 675.35 810.4 669.5 796.8 674.05 798.9 677.45 801.7 681.2 794.55 678.4 785.25 681.75 786.6 684.4 788.75 686.65 779.45 681.4 768.85 686.95 771.9 690.35 776 691.45 770.2 690.35 763.05
L 692.45 766.45 692.45 757.5
Q 691.95 756.45 691.3 755.35 691.85 755.6 692.45 755.9
L 692.45 727.4 Z"/>

<path fill="#FFFFFF" stroke="none" d="
M 681.4 768.85
Q 686.65 779.45 684.4 788.75 681.75 786.6 678.4 785.25 681.2 794.55 677.45 801.7 674.05 798.9 669.5 796.8 675.35 810.4 668.55 821.9
L 663.55 817.05 659.6 817.05 653.7 821.9 649.75 818
Q 642.9 817.85 640 823.4 639.9 823.6 639.8 823.8 637 817.85 629.9 818
L 625.9 821.9 620 817.05 616.05 817.05 611.05 821.9
Q 604.3 810.4 610.1 796.8 605.6 798.9 602.15 801.7 598.4 794.55 601.2 785.25 597.85 786.6 595.2 788.75 592.95 779.45 598.2 768.85 592.65 771.9 589.3 776 588.2 770.2 589.3 763.05
L 586.4 767.75 586.35 767.8
Q 585 763.8 586.4 759.5 587.05 757.45 588.3 755.35 587.3 755.75 586.4 756.25 578.15 760.45 576.4 769.8 576.3 774.5 581.4 775.6 578.85 782.95 585.05 784.25 584.55 786.15 584.3 788.15 584.5 793.4 589.15 796.8 587.3 800.6 586.35 805.5 588.5 812.35 593.45 815.15 592.6 817.85 592.25 820.9
L 595.2 831.5
Q 602.8 831.45 607.1 827.65 617.35 844.65 623 830.55 633.95 849.1 639.8 831.5 639.9 831.8 640 832.1 640.05 832.3 640.15 832.5 646 848.55 656.65 830.55 662.25 844.65 672.5 827.65 676.9 831.45 684.4 831.5
L 687.35 820.9
Q 687 817.85 686.2 815.15 691.1 812.35 693.3 805.5 692.3 800.6 690.5 796.8 695.15 793.4 695.3 788.15 695.1 786.15 694.55 784.25 700.75 782.95 698.25 775.6 703.3 774.5 703.2 769.8 701.35 760 692.45 755.9 691.85 755.6 691.3 755.35 691.95 756.45 692.45 757.5 694.9 762.85 693.3 767.8
L 692.45 766.45 690.35 763.05
Q 691.45 770.2 690.35 776 686.95 771.9 681.4 768.85
M 700.75 718.7
L 708.45 702.3
Q 712.1 687.35 707.5 682.05 701.2 684.5 697.85 697.5 691.6 684.6 685.3 698.45
L 678.85 708.65 678.55 709.05
Q 678.5 708.75 678.45 708.55 673.95 688.15 660.25 707.15 650.65 693.1 640.15 708.1 640.05 708.2 640 708.3 639.95 708.2 639.85 708.1 629.35 693.1 619.75 707.15 606.1 688.25 601.6 708.35 601.55 708.7 601.45 709.05
L 601.05 708.45 594.7 698.45
Q 588.4 684.6 582.15 697.5 578.8 684.5 572.5 682.05 567.9 687.35 571.55 702.3
L 579.25 718.7 580.2 711
Q 582.2 718.15 586.55 724.1 590.6 729.65 596.6 734.15 596.95 724.8 601.45 716.8 603.9 723 609.15 726.4
L 619.75 726.4
Q 622.65 723.4 622.65 719.65 622.85 723.85 625.55 727.4
L 636.15 727.2
Q 639.3 723.95 640 719.5 640.7 723.95 643.85 727.2
L 654.45 727.4
Q 657.15 723.85 657.35 719.65 657.35 723.4 660.25 726.4
L 670.85 726.4
Q 676.1 723 678.55 716.8 683.05 724.8 683.4 734.15 688.7 730.25 692.4 725.5 697.55 719 699.8 711
L 700.75 718.7 Z"/>

<path fill="#202020" stroke="none" d="
M 763.25 642.95
Q 763.3 642.9 763.4 642.85 766.3 641.7 769.2 640.6
L 777.9 607.8
Q 765.65 591.9 768.95 572.4 760.9 611.95 734.15 642.7
L 734.15 642.65
Q 695.2 687.25 640 687.15 584.85 687.25 545.85 642.7
L 545.85 642.65
Q 518.95 611.8 511 572.05 514.45 591.75 502.1 607.8
L 510.8 640.6
Q 513.7 641.7 516.6 642.85 556.3 658.75 589.85 686.9 617.65 698.15 640 695.95 662.35 698.15 690.15 686.9 723.65 658.8 763.25 642.95 Z"/>

<path fill="#3B3B3B" stroke="none" d="
M 763.4 642.85
Q 763.3 642.9 763.25 642.95 743 697.7 741.1 745.7 736 745.95 729.55 760.15 735.4 745.15 732.4 736.05 721.5 755.55 719.9 776.55 702.7 803.85 694.8 833.45 674.25 853.1 640.15 851.75
L 640.15 885
Q 640.55 885 640.95 885.05 675.4 886.3 702.65 857.55 717.95 775.25 766.3 738 763.9 730.1 762.35 721.6 755.95 687.15 763.4 642.85 Z"/>

<path fill="#242424" stroke="none" d="
M 844.5 436.2
Q 840.3 424.35 835.25 413.05 796.8 391.7 776.7 354.25
L 772.35 537.45
Q 772.3 554.65 769.3 570.45 769.15 571.15 769.05 571.85 769 571.95 769 572.05 768.95 572.2 768.95 572.4 765.65 591.9 777.9 607.8
L 769.2 640.6
Q 766.3 641.7 763.4 642.85 755.95 687.15 762.35 721.6 825.15 663.3 864.2 587.55 867.95 502.5 844.5 436.2 Z"/>

<path fill="#141414" stroke="none" d="
M 776.7 354.25
L 777.25 329.1
Q 773.1 363.05 765.35 401.5
L 759.55 540.5
Q 759.5 540.8 759.55 541.05 758.45 595.45 724.5 634.25 689.5 674.35 640 674.35 590.5 674.35 555.45 634.25 522.5 596.55 520.6 544.2 520.55 543.7 520.55 543.2
L 514.65 401.5
Q 506.9 363.05 502.75 329.1
L 503.35 354.25 507.65 537.45
Q 507.7 554.55 510.65 570.25 510.85 571.15 511 572.05 518.95 611.8 545.85 642.65
L 545.85 642.7
Q 584.85 687.25 640 687.15 695.2 687.25 734.15 642.65
L 734.15 642.7
Q 760.9 611.95 768.95 572.4 768.95 572.2 769 572.05 769 571.95 769.05 571.85 769.15 571.15 769.3 570.45 772.3 554.65 772.35 537.45
L 776.7 354.25 Z"/>

<path fill="#3A3A3A" stroke="none" d="
M 777.25 329.1
Q 777.35 328.2 777.5 327.3 793.95 189.85 750.9 125.7 711.55 66.8 640 72.3
L 640 674.35
Q 689.5 674.35 724.5 634.25 758.45 595.45 759.55 541.05 759.5 540.8 759.55 540.5
L 765.35 401.5
Q 773.1 363.05 777.25 329.1 Z"/>
</g>

<g id="Layer17_0_FILL">
<path fill="#3E3E3E" stroke="none" d="
M 658 778.35
L 661 772.35 656 766.35 655 772.35 651 770.65 648 771.5 644 769.8 639.7 770.85 635.4 769.8 631.4 771.5 628.4 770.65 624.4 772.35 623.4 766.35 618.4 772.35 621.4 778.35 639.7 776.25 658 778.35
M 661 758.1
L 658 752.1 639.7 754.2 621.4 752.1 618.4 758.1 623.4 764.1 624.4 758.1 628.4 759.8 631.4 758.95 635.4 760.65 639.7 759.6 644 760.65 648 758.95 651 759.8 655 758.1 656 764.1 661 758.1 Z"/>
</g>

<g id="Layer9_0_FILL">
<path fill="#FFFFFF" stroke="none" d="
M 549.35 526.85
Q 542.95 526.85 538.4 536.25 533.95 545.7 533.95 559.15 533.95 572.55 538.4 582 542.95 591.45 549.35 591.45 555.8 591.45 560.25 582 564.8 572.55 564.8 559.15 564.8 545.7 560.25 536.25 555.8 526.85 549.35 526.85
M 526.95 517.75
Q 529.55 520.35 533.2 520.35 536.9 520.35 539.45 517.75 542.05 515.2 542.05 511.55 542.05 507.9 539.45 505.25 536.9 502.7 533.2 502.7 529.55 502.7 526.95 505.25 524.4 507.9 524.4 511.55 524.4 515.2 526.95 517.75 Z"/>
</g>

<g id="Layer8_0_FILL">
<path fill="#66FE78" stroke="none" d="
M 605 889.3
Q 593.15 851.95 604.3 846.15 591.75 841.2 585.05 833.45 600.4 862.65 594.4 893.9
L 594.35 894.2
Q 593.7 897.2 593.7 900.75 593.7 907.1 595.7 911.6 597.65 916.15 600.45 916.15 603.25 916.15 605.25 911.6 607.2 907.1 607.2 900.75 607.2 894.4 605.25 889.85 605.15 889.55 605 889.3 Z"/>
</g>

<path id="Layer22_0_1_STROKES" stroke="#494900" stroke-width="0.1" stroke-linejoin="round" stroke-linecap="round" fill="none" d="
M 815 801.65
L 769.6 854.65
M 513.9 854.65
L 465.5 801.65
M 435.95 436.2
L 844.5 436.2"/>

<path id="Layer22_0_2_STROKES" stroke="#666666" stroke-opacity="0.4" stroke-width="8" stroke-linejoin="round" stroke-linecap="round" fill="none" d="
M 958.7 598.2
L 948.45 600.65
Q 929.65 605.1 934.1 623.85
L 935.35 629.15 965.8 621.9
M 971.8 643.4
L 940.55 650.8 945.75 672.5 977.45 664.95
M 935.35 629.15
L 940.55 650.8
M 982.85 686.65
L 950.95 694.25 956.1 715.95 987.9 708.4
M 956.1 715.95
L 961.3 737.65 992.75 730.2
M 997.3 752.05
L 966.45 759.4 971.65 781.1 1001.65 773.95
M 961.3 737.65
L 966.45 759.4
M 945.75 672.5
L 950.95 694.25
M 971.65 781.1
L 973.55 788.9
Q 978.05 807.7 996.8 803.2
L 1006.7 800.85
M 287.8 730.25
L 319.15 737.65 324.35 715.95 292.55 708.45
M 319.15 737.65
L 314 759.4 308.75 781.1 306.9 788.9
Q 302.4 807.7 283.65 803.2
L 273.8 800.9
M 283.2 752.1
L 314 759.4
M 278.9 774
L 308.75 781.1
M 321.8 598.25
L 332 600.65
Q 350.75 605.1 346.35 623.85
L 345.05 629.15 339.85 650.8 334.7 672.5 329.5 694.25 324.35 715.95
M 334.7 672.5
L 303.05 664.95
M 297.7 686.7
L 329.5 694.25
M 314.7 621.9
L 345.05 629.15
M 308.65 643.4
L 339.85 650.8"/>

<path id="Layer19_0_1_STROKES" stroke="#000000" stroke-opacity="0.2" stroke-width="8" stroke-linejoin="round" stroke-linecap="round" fill="none" d="
M 522.4 190.2
Q 530.4 175.6 553.85 164.15 589.5 146.7 640 146.7 690.5 146.7 726.15 164.15 749.6 175.6 757.65 190.2
M 522.4 320.45
Q 530.4 305.85 553.85 294.35 589.5 276.9 640 276.9 690.5 276.9 726.15 294.35 749.6 305.85 757.65 320.45
M 522.4 363.8
Q 530.4 349.25 553.85 337.75 589.5 320.3 640 320.3 690.5 320.3 726.15 337.75 749.6 349.25 757.65 363.8
M 522.4 277
Q 530.4 262.45 553.85 250.9 589.5 233.45 640 233.45 690.5 233.45 726.15 250.9 749.6 262.45 757.65 277
M 522.4 233.6
Q 530.4 219.05 553.85 207.55 589.5 190.05 640 190.05 690.5 190.05 726.15 207.55 749.6 219.05 757.65 233.6"/>
</defs>

<g transform="matrix( 1, 0, 0, 1, 0,0) ">
<use xlink:href="#Layer25_0_FILL"/>
</g>

<g transform="matrix( 1, 0, 0, 1, 0,0) ">
<use xlink:href="#Layer22_0_FILL"/>

<use xlink:href="#Layer22_0_1_STROKES"/>

<use xlink:href="#Layer22_0_2_STROKES"/>
</g>

<g transform="matrix( 1, 0, 0, 1, 0,0) ">
<use xlink:href="#Layer21_0_FILL"/>
</g>

<g transform="matrix( 1, 0, 0, 1, 0,0) ">
<use xlink:href="#Layer20_0_FILL"/>
</g>

<g transform="matrix( 1, 0, 0, 1, 0,0) ">
<use xlink:href="#Layer19_0_1_STROKES"/>
</g>

<g transform="matrix( 1, 0, 0, 1, 0,0) ">
<use xlink:href="#Layer17_0_FILL"/>
</g>

<g transform="matrix( 1, 0, 0, 1, 0,0) ">
<use xlink:href="#Layer9_0_FILL"/>
</g>

<g transform="matrix( 1, 0, 0, 1, 0,0) ">
<use xlink:href="#Layer8_0_FILL"/>
</g>
</svg>
